<svg id="Solid" viewBox="0 0 32 32" xmlns="http://www.w3.org/2000/svg"><path d="m23 4h-14c-1.0999756 0-2 .8999634-2 2v21c0 .3499756.1799927.6699829.4699707.8499756.3000488.1799927.6700439.2000122.9800415.0400391l3.5499878-1.7700195 3.5499878 1.7700195c.2800293.1499634.6199951.1499634.9000244 0l3.5499878-1.7700195 3.5499878 1.7700195c.1400146.0699463.2999878.1099854.4500122.1099854.1799927 0 .3699951-.0499878.5300293-.1500244.289978-.1799927.4699707-.5.4699707-.8499756v-21.0000001c0-1.1000366-.9000244-2-2-2zm-3 14h-8c-.5499878 0-1-.4500122-1-1s.4500122-1 1-1h8c.5499878 0 1 .4500122 1 1s-.4500122 1-1 1zm0-4h-8c-.5499878 0-1-.4500122-1-1s.4500122-1 1-1h8c.5499878 0 1 .4500122 1 1s-.4500122 1-1 1zm0-4h-8c-.5499878 0-1-.4500122-1-1s.4500122-1 1-1h8c.5499878 0 1 .4500122 1 1s-.4500122 1-1 1z" fill="rgb(0,0,0)"/></svg>