<svg clip-rule="evenodd" fill-rule="evenodd" height="512" stroke-linejoin="round" stroke-miterlimit="2" viewBox="0 0 67 67" width="512" xmlns="http://www.w3.org/2000/svg"><g id="Layer1"><path d="m14.565 64.583h39.626c1.651 0 3.234-.656 4.402-1.823 1.168-1.168 1.824-2.752 1.824-4.403 0-.016 0-.032 0-.048 0-1.651-.656-3.234-1.824-4.402s-2.751-1.824-4.402-1.824h-2.108v-41.684c0-4.593-3.723-8.316-8.315-8.316h-35.435c-1.15 0-2.083.933-2.083 2.084v52.101c0 4.592 3.723 8.315 8.315 8.315zm39.626-4.166h-35.441v-2.108c0-.546.217-1.07.603-1.456s.91-.603 1.456-.603h33.382c.546 0 1.07.217 1.456.603s.603.91.603 1.456v.048c0 .546-.217 1.07-.603 1.456-.386.387-.91.604-1.456.604zm-6.274-8.334v-41.684c0-2.292-1.858-4.149-4.149-4.149h-33.351v50.018c0 2.291 1.857 4.149 4.148 4.149h.018v-2.107c0-1.652.656-3.235 1.824-4.403s2.751-1.824 4.402-1.824zm-31.25-20.833h12.5c1.149 0 2.083-.934 2.083-2.083 0-1.15-.934-2.084-2.083-2.084h-12.5c-1.15 0-2.084.934-2.084 2.084 0 1.149.934 2.083 2.084 2.083zm0-8.333h25c1.149 0 2.083-.934 2.083-2.084 0-1.149-.934-2.083-2.083-2.083h-25c-1.15 0-2.084.934-2.084 2.083 0 1.15.934 2.084 2.084 2.084zm0-8.334h25c1.149 0 2.083-.933 2.083-2.083s-.934-2.083-2.083-2.083h-25c-1.15 0-2.084.933-2.084 2.083s.934 2.083 2.084 2.083z"/></g></svg>